#!OML:ASF X:\für Bonn\!DataBase\2005_08_12_Daniel\c3d\Daniel.ASF
:FULLY-SPECIFIED
:DEGREES
222
root 1.46577 17.4621 17.9143 -4.4349 -339.347 361.807
lowerback 10.9825 -3.8393 1.47392
upperback 2.39481 -5.01118 -2.34567
thorax -3.97658 -2.50059 -2.5479
lowerneck -1.42498 5.75969 -0.694956
upperneck 2.14886 8.15952 -13.7751
head 1.5693 3.91041 -4.24581
rclavicle -4.99446e-015 2.78299e-015
rhumerus -61.1705 -7.82609 -96.0232
rradius 78.8678
rwrist -52.9635
rhand -2.24944 11.723
rfingers 7.12502
rthumb 23.4341 -16.87
lclavicle -4.99446e-015 2.78299e-015
lhumerus -33.7578 25.8965 75.7958
lradius 31.8539
lwrist -15.371
lhand -11.5166 -5.92933
lfingers 7.12502
lthumb 14.5228 23.5424
rfemur 0.0188782 15.6308 15.3596
rtibia 24.5963
rfoot -20.4193 -0.30717
rtoes -14.4648
lfemur -11.9013 -20.6117 -18.0038
ltibia 34.0308
lfoot -17.6293 -6.51382
ltoes -12.1982
223
root 1.42119 17.4624 17.8851 -4.47926 -338.945 361.766
lowerback 11.2408 -3.84319 1.59577
upperback 2.45642 -4.99658 -2.31281
thorax -4.06089 -2.49336 -2.56991
lowerneck -1.19255 6.00136 -0.401635
upperneck 2.13979 8.48707 -14.162
head 1.58748 4.08183 -4.43836
rclavicle -8.89561e-015 -6.75868e-015
rhumerus -60.7844 -8.1759 -95.3751
rradius 76.8172
rwrist -53.9507
rhand -1.8117 11.7523
rfingers 7.12502
rthumb 23.854 -16.7865
lclavicle -8.89561e-015 -6.75868e-015
lhumerus -33.6402 25.1263 76.4652
lradius 32.6521
lwrist -14.6563
lhand -11.586 -6.06056
lfingers 7.12502
lthumb 14.4559 23.4159
rfemur -0.0841888 15.3255 15.4856
rtibia 24.7023
rfoot -20.3912 -0.487789
rtoes -14.4499
lfemur -12.2178 -20.5287 -17.7803
ltibia 34.1173
lfoot -17.4248 -6.9696
ltoes -12.4297
224
root 1.37666 17.4613 17.8549 -4.50737 -338.521 361.725
lowerback 11.485 -3.84556 1.6941
upperback 2.50979 -4.9816 -2.26642
thorax -4.14262 -2.4857 -2.56548
lowerneck -0.957631 6.25126 -0.0750356
upperneck 2.15666 8.83241 -14.5832
head 1.62199 4.26139 -4.6508
rclavicle 2.36057e-015 -6.36111e-015
rhumerus -60.3124 -8.3112 -94.7593
rradius 74.7495
rwrist -54.8105
rhand -1.30503 12.0053
rfingers 7.12502
rthumb 24.3398 -16.4692
lclavicle 2.36057e-015 -6.36111e-015
lhumerus -33.5173 24.4665 77.107
lradius 33.3928
lwrist -14.1152
lhand -11.6321 -6.22796
lfingers 7.12502
lthumb 14.4115 23.2517
rfemur -0.199569 15.0518 15.6116
rtibia 24.816
rfoot -20.3945 -0.707598
rtoes -14.4751
lfemur -12.5564 -20.4489 -17.5592
ltibia 34.1929
lfoot -17.2166 -7.42198
ltoes -12.6708
225
root 1.33293 17.4602 17.8229 -4.53298 -338.054 361.686
lowerback 11.745 -3.85401 1.81749
upperback 2.54964 -4.97212 -2.24223
thorax -4.25146 -2.4815 -2.59591
lowerneck -0.747326 6.49375 0.310142
upperneck 2.30681 9.19646 -15.3641
head 1.55365 4.42396 -4.46102
rclavicle 9.35779e-014 1.19271e-015
rhumerus -59.7989 -8.31435 -94.2356
rradius 72.7057
rwrist -55.5403
rhand -0.907955 12.3854
rfingers 7.12502
rthumb 24.7204 -16.0375
lclavicle 9.35779e-014 1.19271e-015
lhumerus -33.3993 23.8003 77.7249
lradius 34.1228
lwrist -13.6106
lhand -11.6792 -6.38747
lfingers 7.12502
lthumb 14.3661 23.0954
rfemur -0.300537 14.8145 15.742
rtibia 24.917
rfoot -20.4028 -1.00316
rtoes -14.5537
lfemur -12.9045 -20.3505 -17.3478
ltibia 34.255
lfoot -16.9989 -7.89917
ltoes -12.9318
226
root 1.29058 17.4595 17.7909 -4.56836 -337.576 361.645
lowerback 12.0074 -3.85559 1.92937
upperback 2.59268 -4.95324 -2.2026
thorax -4.35512 -2.47235 -2.60546
lowerneck -0.548312 6.72872 0.652441
upperneck 2.42603 9.54186 -15.7687
head 1.61965 4.59621 -4.63044
rclavicle 2.86995e-014 -8.74653e-015
rhumerus -59.234 -8.132 -93.7566
rradius 70.7012
rwrist -56.1304
rhand -0.680946 12.7776
rfingers 7.12502
rthumb 24.938 -15.6153
lclavicle 2.86995e-014 -8.74653e-015
lhumerus -33.2446 23.1597 78.3674
lradius 34.7998
lwrist -13.0909
lhand -11.6302 -6.50861
lfingers 7.12502
lthumb 14.4133 22.9709
rfemur -0.373799 14.5741 15.867
rtibia 24.9994
rfoot -20.4144 -1.30649
rtoes -14.5825
lfemur -13.2215 -20.2518 -17.1606
ltibia 34.2877
lfoot -16.7942 -8.32476
ltoes -13.3237
227
root 1.24857 17.4597 17.758 -4.60177 -337.065 361.589
lowerback 12.2696 -3.86137 2.05161
upperback 2.62864 -4.93797 -2.16342
thorax -4.46705 -2.46529 -2.62057
lowerneck -0.341723 6.96628 1.019
upperneck 2.535 9.89083 -16.1551
head 1.68448 4.77188 -4.79844
rclavicle -1.15519e-013 -1.98785e-015
rhumerus -58.6073 -7.82171 -93.3523
rradius 68.7519
rwrist -56.5858
rhand -0.624549 13.0883
rfingers 7.12502
rthumb 24.992 -15.297
lclavicle -1.15519e-013 -1.98785e-015
lhumerus -33.0476 22.5863 78.9925
lradius 35.4096
lwrist -12.6136
lhand -11.5859 -6.54804
lfingers 7.12502
lthumb 14.456 22.9284
rfemur -0.430933 14.3704 16.0088
rtibia 25.0499
rfoot -20.4471 -1.65274
rtoes -14.5543
lfemur -13.5469 -20.1311 -16.9675
ltibia 34.2995
lfoot -16.5703 -8.74145
ltoes -13.7
228
root 1.20903 17.4614 17.7258 -4.61884 -336.524 361.551
lowerback 12.4946 -3.87116 2.18169
upperback 2.66669 -4.92709 -2.1305
thorax -4.55769 -2.4605 -2.64834
lowerneck -0.20579 7.19562 1.3439
upperneck 2.74131 10.2467 -16.4988
head 1.78871 4.94273 -4.94196
rclavicle 2.37548e-014 -7.95139e-015
rhumerus -57.911 -7.38725 -92.9698
rradius 66.823
rwrist -56.8209
rhand -0.726742 13.2199
rfingers 7.12502
rthumb 24.8941 -15.179
lclavicle 2.37548e-014 -7.95139e-015
lhumerus -32.8178 22.0464 79.619
lradius 35.9645
lwrist -12.0921
lhand -11.4993 -6.54412
lfingers 7.12502
lthumb 14.5395 22.9264
rfemur -0.463654 14.1834 16.1238
rtibia 25.0637
rfoot -20.4742 -2.00367
rtoes -14.4783
lfemur -13.8586 -20.0378 -16.8131
ltibia 34.2862
lfoot -16.368 -9.06583
ltoes -14.1473
229
root 1.17167 17.4631 17.6926 -4.64445 -335.955 361.513
lowerback 12.7309 -3.88052 2.34888
upperback 2.69191 -4.91092 -2.11471
thorax -4.67215 -2.4541 -2.71467
lowerneck -0.00562696 7.41101 1.6837
upperneck 2.92795 10.5806 -16.8301
head 1.8766 5.10729 -5.08771
rclavicle -4.62174e-015 1.55052e-014
rhumerus -57.1759 -6.90308 -92.5963
rradius 64.9099
rwrist -56.762
rhand -1.00874 13.1659
rfingers 7.12502
rthumb 24.6238 -15.2701
lclavicle -4.62174e-015 1.55052e-014
lhumerus -32.6292 21.5533 80.2077
lradius 36.5045
lwrist -11.6116
lhand -11.3976 -6.46467
lfingers 7.12502
lthumb 14.6375 22.9987
rfemur -0.461862 13.9797 16.2316
rtibia 25.0486
rfoot -20.494 -2.39351
rtoes -14.3745
lfemur -14.1511 -19.8981 -16.6868
ltibia 34.2594
lfoot -16.1926 -9.37195
ltoes -14.7063
230
root 1.13587 17.4646 17.6605 -4.67178 -335.37 361.472
lowerback 12.9475 -3.88625 2.5285
upperback 2.71951 -4.8879 -2.1026
thorax -4.77394 -2.44455 -2.79455
lowerneck 0.158134 7.62072 1.99031
upperneck 3.1565 10.9146 -17.1119
head 1.98059 5.26837 -5.21065
rclavicle -4.58944e-014 1.0138e-014
rhumerus -56.3783 -6.38125 -92.2171
rradius 62.9657
rwrist -56.3003
rhand -1.38219 13.0482
rfingers 7.12502
rthumb 24.2658 -15.4362
lclavicle -4.58944e-014 1.0138e-014
lhumerus -32.444 21.1833 80.7526
lradius 36.9977
lwrist -11.2554
lhand -11.2465 -6.32736
lfingers 7.12502
lthumb 14.7831 23.1254
rfemur -0.437412 13.8073 16.3424
rtibia 25.0053
rfoot -20.5458 -2.81536
rtoes -14.2919
lfemur -14.4259 -19.7404 -16.5789
ltibia 34.2242
lfoot -16.0072 -9.57982
ltoes -15.0836
231
root 1.10218 17.4672 17.6285 -4.68286 -334.756 361.45
lowerback 13.1333 -3.9 2.71464
upperback 2.75149 -4.87509 -2.10331
thorax -4.85642 -2.44014 -2.8919
lowerneck 0.291197 7.83103 2.29296
upperneck 3.41225 11.2566 -17.3848
head 2.09985 5.43071 -5.3277
rclavicle -7.81969e-014 1.98785e-014
rhumerus -55.5454 -5.64308 -91.8903
rradius 61.0623
rwrist -55.4879
rhand -1.80895 12.8463
rfingers 7.12502
rthumb 23.8566 -15.6921
lclavicle -7.81969e-014 1.98785e-014
lhumerus -32.2665 20.9411 81.2444
lradius 37.4423
lwrist -11.0545
lhand -11.0468 -6.22834
lfingers 7.12502
lthumb 14.9754 23.2102
rfemur -0.394891 13.654 16.434
rtibia 24.9427
rfoot -20.6031 -3.27803
rtoes -14.222
lfemur -14.7106 -19.5508 -16.515
ltibia 34.1856
lfoot -15.7386 -9.68207
ltoes -14.7953
232
root 1.07022 17.4693 17.597 -4.70996 -334.122 361.411
lowerback 13.3237 -3.91114 2.92469
upperback 2.76961 -4.85449 -2.09787
thorax -4.95672 -2.43271 -2.99707
lowerneck 0.452594 8.02861 2.53591
upperneck 3.68946 11.5829 -17.5983
head 2.21391 5.5857 -5.41855
rclavicle 5.27276e-014 -2.36554e-014
rhumerus -54.7724 -4.69281 -91.5948
rradius 59.2201
rwrist -54.3058
rhand -2.24498 12.6954
rfingers 7.12502
rthumb 23.4384 -15.8971
lclavicle 5.27276e-014 -2.36554e-014
lhumerus -32.1093 20.7192 81.725
lradius 37.8009
lwrist -10.8501
lhand -10.9327 -6.13405
lfingers 7.12502
lthumb 15.0853 23.2963
rfemur -0.318467 13.5122 16.5446
rtibia 24.8537
rfoot -20.6534 -3.76388
rtoes -14.114
lfemur -14.9824 -19.3314 -16.4617
ltibia 34.1541
lfoot -15.4875 -9.66431
ltoes -14.5299
233
root 1.03911 17.4721 17.5669 -4.72195 -333.458 361.387
lowerback 13.4707 -3.91821 3.14327
upperback 2.80304 -4.82799 -2.10244
thorax -5.01791 -2.4221 -3.122
lowerneck 0.574466 8.21412 2.72563
upperneck 3.96589 11.8944 -17.7874
head 2.32984 5.73132 -5.49204
rclavicle 4.47017e-014 -1.19271e-014
rhumerus -53.9015 -3.9375 -91.1728
rradius 57.2284
rwrist -52.364
rhand -2.50426 12.6748
rfingers 7.12502
rthumb 23.1897 -15.9492
lclavicle 4.47017e-014 -1.19271e-014
lhumerus -31.9275 20.589 82.1748
lradius 38.0922
lwrist -10.8142
lhand -10.8003 -6.0537
lfingers 7.12502
lthumb 15.2129 23.367
rfemur -0.222656 13.4206 16.6515
rtibia 24.7429
rfoot -20.7433 -4.33517
rtoes -14.0067
lfemur -15.2546 -19.041 -16.4406
ltibia 34.1177
lfoot -15.2641 -9.55496
ltoes -14.241
234
root 1.0091 17.4741 17.5372 -4.76017 -332.775 361.346
lowerback 13.6181 -3.91336 3.41614
upperback 2.84195 -4.77848 -2.12887
thorax -5.07749 -2.40109 -3.30534
lowerneck 0.695232 8.37791 2.90512
upperneck 4.26693 12.1778 -17.9189
head 2.44706 5.86247 -5.54698
rclavicle -4.7758e-014 1.35174e-014
rhumerus -52.9433 -3.5286 -90.6143
rradius 55.0063
rwrist -49.6424
rhand -2.55279 12.8966
rfingers 7.12502
rthumb 23.1431 -15.7332
lclavicle -4.7758e-014 1.35174e-014
lhumerus -31.7232 20.4179 82.5928
lradius 38.2563
lwrist -10.8482
lhand -10.6586 -6.1273
lfingers 7.12502
lthumb 15.3494 23.283
rfemur -0.0870554 13.3644 16.7845
rtibia 24.6102
rfoot -20.8391 -4.93312
rtoes -13.8042
lfemur -15.5008 -18.6988 -16.4308
ltibia 34.0923
lfoot -15.0783 -9.31724
ltoes -13.9186
235
root 0.980785 17.4775 17.5092 -4.77102 -332.078 361.325
lowerback 13.721 -3.89343 3.69619
upperback 2.86953 -4.70928 -2.1606
thorax -5.12332 -2.37082 -3.50475
lowerneck 0.814991 8.52171 3.03725
upperneck 4.59758 12.4392 -18.0295
head 2.56742 5.98083 -5.58849
rclavicle -1.53313e-014 1.59028e-015
rhumerus -52.0158 -3.1173 -90.0317
rradius 52.7774
rwrist -46.478
rhand -2.6712 13.2361
rfingers 7.12502
rthumb 23.0295 -15.408
lclavicle -1.53313e-014 1.59028e-015
lhumerus -31.5558 20.1891 83.0134
lradius 38.3747
lwrist -10.9648
lhand -10.5817 -6.20727
lfingers 7.12502
lthumb 15.4234 23.1973
rfemur 0.0564801 13.3524 16.9082
rtibia 24.4608
rfoot -20.9684 -5.618
rtoes -13.7805
lfemur -15.7525 -18.2157 -16.4711
ltibia 34.0667
lfoot -14.9524 -8.97502
ltoes -13.8372
236
root 0.9531 17.48 17.4826 -4.7881 -331.348 361.314
lowerback 13.814 -3.86622 4.00602
upperback 2.90141 -4.62781 -2.22503
thorax -5.16216 -2.33514 -3.75918
lowerneck 0.954616 8.64648 3.18716
upperneck 4.92142 12.6716 -18.1069
head 2.67878 6.08731 -5.62518
rclavicle -7.62836e-015 -1.98785e-015
rhumerus -51.087 -2.84364 -89.4477
rradius 50.523
rwrist -42.9647
rhand -2.85305 13.726
rfingers 7.12502
rthumb 22.855 -14.9397
lclavicle -7.62836e-015 -1.98785e-015
lhumerus -31.37 19.8605 83.4025
lradius 38.3997
lwrist -11.0368
lhand -10.5146 -6.36674
lfingers 7.12502
lthumb 15.488 23.0329
rfemur 0.249694 13.4224 17.047
rtibia 24.2853
rfoot -21.1326 -6.37947
rtoes -13.5924
lfemur -15.9761 -17.6189 -16.5631
ltibia 34.0545
lfoot -14.8803 -8.5152
ltoes -14.0134
